<svg width="366" height="283" viewBox="0 0 366 283" fill="none" xmlns="http://www.w3.org/2000/svg">
<g style="mix-blend-mode:multiply" opacity="0.2">
<path d="M156.87 283C226.796 283 283.483 280.646 283.483 277.743C283.483 274.84 226.796 272.486 156.87 272.486C86.9436 272.486 30.2571 274.84 30.2571 277.743C30.2571 280.646 86.9436 283 156.87 283Z" fill="#77367C"/>
</g>
<path fill-rule="evenodd" clip-rule="evenodd" d="M258.854 61.3668V52.1228L325.843 14.835L321.059 31.3182L282.837 41.5423L279.189 77.4046L258.854 61.3668Z" fill="url(#paint0_linear)"/>
<path fill-rule="evenodd" clip-rule="evenodd" d="M295.519 169.689L293.694 160.623V133.292C293.694 133.292 331.026 108.211 333.451 72.1255C335.676 38.7135 289.957 42.2551 279.211 77.4046L258.876 61.3668C258.876 61.3668 277.164 -3.76436 325.887 8.06351C376.523 20.3591 384.377 100.771 319.658 136.299L316.053 162.227L313.228 169.689H295.519Z" fill="url(#paint1_linear)"/>
<path fill-rule="evenodd" clip-rule="evenodd" d="M362.44 75.1326C357.835 94.3557 344.219 113.534 319.635 127.033L314.986 162.672L293.694 160.712V124.026C293.694 124.026 321.371 105.426 330.604 77.2487C332.152 72.5986 333.109 67.7714 333.451 62.8815C334.719 43.8589 319.435 36.4414 304.04 40.0945C292.426 42.812 283.816 53.0361 279.189 68.1606L258.854 52.1451C258.854 52.1451 268.688 12.3402 298.9 4.38815C306.541 2.48519 314.539 2.54649 322.149 4.56636C353.63 12.162 369.893 43.7698 362.44 75.1326Z" fill="url(#paint2_linear)"/>
<path fill-rule="evenodd" clip-rule="evenodd" d="M235.961 270.058C211.155 277.565 192.511 269.925 192.511 269.925C184.88 214.528 183.99 205.328 181.387 169.911L190.598 167.818C194.358 191.629 198.74 235.555 207.15 249.477C213.09 256.159 233.269 260.191 233.269 260.191C235.345 263.038 236.303 266.55 235.961 270.058Z" fill="url(#paint3_linear)"/>
<path fill-rule="evenodd" clip-rule="evenodd" d="M235.961 270.058C211.155 277.565 192.511 269.925 192.511 269.925C192.511 269.925 188.061 243.084 186.059 220.586L197.739 215.307C202.078 241.591 207.261 249.477 207.261 249.477C213.202 256.159 233.38 260.191 233.38 260.191C235.417 263.053 236.335 266.564 235.961 270.058Z" fill="url(#paint4_linear)"/>
<path fill-rule="evenodd" clip-rule="evenodd" d="M192.511 269.925V274.068C192.511 274.068 222.768 277.253 236.072 271.996V270.058C221.582 271.423 206.993 271.378 192.511 269.925Z" fill="url(#paint5_linear)"/>
<g style="mix-blend-mode:soft-light" opacity="0.7">
<path fill-rule="evenodd" clip-rule="evenodd" d="M209.419 249.477L201.01 255.535C201.01 255.535 218.096 261.683 233.38 260.191C233.38 260.191 218.029 258.208 209.419 249.477Z" fill="white"/>
</g>
<path fill-rule="evenodd" clip-rule="evenodd" d="M4.47182 118.457C12.3031 143.716 29.5007 172.673 47.7217 183.811C50.4803 185.526 53.48 186.817 56.6209 187.642C61.8645 188.67 67.1599 189.414 72.4836 189.87C92.1501 191.845 112.001 190.854 131.374 186.929C131.374 186.929 140.273 182.875 143.966 177.462C143.966 177.462 198.874 169.399 224.058 160.111C228.508 158.484 253.337 123.424 247.73 70.3658C246.165 56.0451 242.717 41.9942 237.474 28.5784C237.474 28.5784 199.052 -3.74215 136.469 0.423221C73.8852 4.58859 53.1502 18.243 46.8541 21.7178C32.3039 29.6699 8.16497 60.4535 0.978904 85.4235C-1.20139 93.1528 0.333715 105.248 4.47182 118.457Z" fill="url(#paint6_linear)"/>
<path style="mix-blend-mode:multiply" opacity="0.3" fill-rule="evenodd" clip-rule="evenodd" d="M182.7 42.0992C182.7 42.0992 174.579 63.6165 166.681 68.4501C158.783 73.2838 133.754 76.8031 122.185 70.4771C110.617 64.1511 108.837 44.5939 108.837 44.5939C106.639 47.8797 104.825 51.4074 103.43 55.1076C102.296 59.117 125.389 86.6263 137.559 87.495C158.049 88.9651 185.725 69.6752 185.725 69.6752L188.662 59.6516L182.7 42.0992Z" fill="url(#paint7_linear)"/>
<path style="mix-blend-mode:multiply" opacity="0.3" fill-rule="evenodd" clip-rule="evenodd" d="M186.081 43.2574C186.081 43.2574 199.119 61.0772 206.527 67.7596C213.936 74.442 222.501 69.9871 227.529 65.3094C232.557 60.6317 225.95 40.8073 225.95 40.8073C225.95 40.8073 232.624 46.5096 233.692 51.9446C234.76 57.3796 231.756 77.9837 226.661 80.033C221.567 82.0823 203.835 76.5359 196.783 70.4549C189.73 64.3739 186.081 43.2574 186.081 43.2574Z" fill="url(#paint8_linear)"/>
<path style="mix-blend-mode:multiply" opacity="0.3" fill-rule="evenodd" clip-rule="evenodd" d="M216.895 47.4897C217.007 49.2697 216.544 51.0386 215.574 52.5349C214.605 54.0311 213.18 55.1753 211.511 55.7981C205.726 57.6915 203.635 51.1204 203.635 51.1204C203.635 51.1204 203.635 59.3621 205.86 61.7009C208.084 64.0398 218.096 63.4161 219.609 61.4336C221.122 59.4512 220.321 49.9622 220.321 49.9622L216.895 47.4897Z" fill="url(#paint9_linear)"/>
<path style="mix-blend-mode:multiply" opacity="0.3" fill-rule="evenodd" clip-rule="evenodd" d="M95.6882 37.4214C95.6882 37.4214 76.8442 59.2284 60.581 59.9857C44.3178 60.7431 38.3331 52.0336 38.3331 52.0336L41.4701 42.2105C41.4701 42.2105 31.5698 55.2858 31.0358 58.6715C30.5019 62.0573 50.3247 74.041 58.1782 72.8382C66.0317 71.6354 91.0606 56.3549 95.6882 37.4214Z" fill="url(#paint10_linear)"/>
<path style="mix-blend-mode:multiply" opacity="0.3" fill-rule="evenodd" clip-rule="evenodd" d="M165.969 6.52646C165.969 6.52646 162.098 11.0928 145.946 8.90984C129.794 6.72692 126.991 1.09143 126.991 1.09143L116.156 2.22743C116.156 2.22743 152.576 18.5548 174.334 17.5079C174.334 17.5079 187.527 16.305 194.046 8.97666C194.046 8.97666 183.3 11.8278 178.339 10.2241C175.7 9.52298 173.407 7.88392 171.887 5.61319L165.969 6.52646Z" fill="url(#paint11_linear)"/>
<path style="mix-blend-mode:multiply" opacity="0.3" fill-rule="evenodd" clip-rule="evenodd" d="M158.36 39.5822C158.36 39.5822 152.887 47.0887 146.146 48.0911C144.283 48.4262 142.362 48.1576 140.661 47.3244C138.961 46.4912 137.57 45.1368 136.691 43.458L135.312 51.6105C135.312 51.6105 145.902 58.4265 149.417 57.8474C152.932 57.2683 158.36 39.5822 158.36 39.5822Z" fill="url(#paint12_linear)"/>
<path fill-rule="evenodd" clip-rule="evenodd" d="M155.491 0.2005L170.908 9.51131C170.908 9.51131 185.102 41.9433 190.42 74.1079C193.76 96.6854 195.33 119.49 195.114 142.313C195.114 142.313 198.629 105.025 192.889 69.7644C189.236 48.0624 182.548 26.9839 173.022 7.15019L172.132 1.75972L155.491 0.2005Z" fill="#FF7F85"/>
<path fill-rule="evenodd" clip-rule="evenodd" d="M190.264 68.8288C190.264 68.8288 182.232 75.088 179.251 77.2932C173.756 81.3249 145.612 89.9229 137.714 89.7893C129.816 89.6556 101.606 61.634 100.694 55.5753C99.7818 49.5166 113.709 20.8268 124.366 19.1117C128.949 18.3766 154.957 31.2959 157.871 36.1295C160.785 40.9631 151.864 59.0725 150.284 59.7184C148.705 60.3644 136.446 54.6843 136.446 54.6843L130.039 58.7161L136.713 43.4579L137.225 52.3678C137.225 52.3678 145.123 56.8227 148.594 57.09C152.064 57.3573 158.672 41.3195 156.425 37.0428C154.178 32.7661 131.552 22.0519 124.277 23.9676C117.002 25.8832 105.121 49.0711 106.078 55.6867C107.035 62.3023 128.86 87.2945 137.67 87.4059C149.706 87.5841 173.934 76.9813 177.716 72.5041C181.498 68.0269 186.615 54.8626 186.615 54.8626L190.264 68.8288Z" fill="#FF7F85"/>
<path fill-rule="evenodd" clip-rule="evenodd" d="M190.108 67.7819C192.96 69.7953 195.932 71.6326 199.007 73.2837C204.77 76.5135 223.324 82.6836 228.397 81.0575C233.469 79.4315 238.119 56.0431 235.205 48.1579C232.29 40.2726 213.669 24.0566 207.261 26.0836C200.854 28.1106 201.722 59.4957 204.725 63.171C207.729 66.8463 219.008 62.926 220.299 61.9013C221.589 60.8767 222.056 51.3209 222.056 51.3209L225.861 49.7393L216.961 47.5119L220.054 51.6772C220.054 51.6772 219.809 59.2506 218.719 61.1885C217.629 63.1264 207.595 62.7478 205.37 59.763C203.145 56.7781 202.545 34.4143 208.507 31.2513C214.47 28.0883 231.156 44.0593 232.98 49.9398C234.804 55.8203 230.577 77.7609 225.149 79.4538C219.72 81.1466 206.127 75.8676 200.676 71.8804C195.225 67.8932 188.173 47.8237 188.173 47.8237L190.108 67.7819Z" fill="#FF7F85"/>
<path fill-rule="evenodd" clip-rule="evenodd" d="M197.383 7.84069C197.383 7.84069 186.905 16.7506 178.539 19.624H175.002C175.002 19.624 128.037 10.7141 110.639 2.62842L120.25 1.67059C120.25 1.67059 132.531 10.0013 156.113 14.7013C171.175 17.7084 174.023 13.6544 174.023 13.6544L176.248 13.8772C176.248 13.8772 179.318 16.5055 185.814 14.0999C187.589 13.5722 189.205 12.6093 190.514 11.2985C191.823 9.98769 192.785 8.37042 193.312 6.59332L197.383 7.84069Z" fill="#FF7F85"/>
<path fill-rule="evenodd" clip-rule="evenodd" d="M63.9182 13.5653C63.9182 13.5653 90.8159 13.8549 96.0886 19.1785C101.361 24.5022 96.6671 59.0502 57.8 70.9004C57.8 70.9004 39.5568 68.3388 34.7512 56.7782C38.6717 45.5946 46.4506 36.1792 56.6876 30.2268C56.6876 30.2268 65.876 27.5093 73.4181 32.2983C73.4181 32.2983 69.8584 45.4181 62.0716 50.8977L54.6186 51.4768L66.6992 55.5977L65.1196 51.7887C69.9938 46.0096 73.8053 39.4105 76.377 32.2983C69.8878 28.8187 62.4773 27.4485 55.1748 28.378C55.1748 28.378 35.6634 42.6783 28.4773 59.5626C28.4773 59.5626 40.8471 76.1795 58.9347 74.8207C58.9347 74.8207 103.43 58.8498 100.316 18.3989C94.4865 14.6616 87.8813 12.3074 81.0046 11.516L80.4929 8.39758C80.4929 8.39758 68.9462 11.5606 63.9182 13.5653Z" fill="#FF7F85"/>
<path fill-rule="evenodd" clip-rule="evenodd" d="M244.927 52.9916C244.927 52.9916 245.884 89.0543 243.392 97.3405C241.546 102.664 238.025 107.244 233.358 110.393C233.358 110.393 227.507 94.5784 213.335 97.14C199.163 99.7016 194.402 113.824 194.402 113.824L178.317 108.032C163.055 102.508 151.375 93.9325 133.376 97.8528C115.378 101.773 114.02 113.133 112.886 112.665C111.751 112.198 98.3357 86.76 90.015 83.2851C81.6943 79.8103 58.7122 80.3004 50.9032 84.8444C43.0942 89.3884 55.1525 129.126 58.9347 133.849C62.7168 138.571 89.0583 132.535 90.3487 128.681C91.6391 124.827 86.2551 103.711 81.0491 101.417C76.8741 99.8892 72.4565 99.1344 68.0118 99.1893L65.0973 92.4846L68.0118 110.304L69.4134 101.261C69.4134 101.261 79.0023 102.776 81.316 105.203C83.6298 107.631 89.3698 122.021 87.9904 126.699C86.611 131.376 65.4088 133.782 60.8703 130.842C56.3317 127.901 52.6608 99.3675 53.3505 92.8187C54.0401 86.2699 82.2727 81.3695 89.7258 85.3121C97.1788 89.2548 108.458 118.346 109.437 119.326C110.416 120.306 118.003 118.947 118.003 118.947C118.003 118.947 130.328 106.184 147.103 106.05C163.878 105.916 187.149 113.623 187.149 113.623L196.182 122.533C196.182 122.533 201.477 104.067 213.446 103.399C225.416 102.731 228.886 114.136 228.886 114.136L228.775 120.818C234.549 115.807 239.282 109.706 242.702 102.865C248.576 91.2595 248.442 74.0189 248.442 74.0189L244.927 52.9916Z" fill="#FF7F85"/>
<path fill-rule="evenodd" clip-rule="evenodd" d="M138.159 177.708C138.159 177.708 117.536 152.938 107.279 152.225C97.0231 151.513 88.8358 161.759 87.4342 166.347C86.0326 170.936 90.7714 177.485 90.7714 177.485L98.3802 178.22C98.3802 178.22 89.481 171.782 89.1473 167.617C88.8136 163.452 97.6237 156.235 107.546 156.769C117.469 157.304 126.768 175.28 126.768 175.28L123.721 178.398C123.721 178.398 135.957 178.888 138.159 177.708Z" fill="#FF7F85"/>
<path fill-rule="evenodd" clip-rule="evenodd" d="M13.6825 141.311C13.6825 141.311 28.4106 154.809 35.1739 154.898C41.9373 154.987 51.7263 151.49 52.3938 149.708C53.0612 147.926 51.8598 120.462 43.1609 96.7835C34.462 73.1055 20.0231 65.9331 16.3077 64.8416C12.5923 63.7502 4.18261 86.3813 6.05143 103.689C7.92025 120.996 27.4984 135.074 31.0581 136.098C34.6177 137.123 38.5779 119.236 35.1072 106.941C31.6365 94.6452 23.4938 85.0671 19.5336 85.4012C15.5735 85.7353 15.885 101.439 18.7772 108.366C18.7772 108.366 16.7972 88.9206 20.6683 88.5196C24.5394 88.1187 32.7712 101.884 34.4397 112.71C36.1083 123.535 31.2806 130.997 28.0546 131.599C24.8287 132.2 8.03149 116.987 7.78676 101.951C7.54204 86.9158 13.104 75.1103 17.2199 73.2837C21.3357 71.4572 36.1751 81.3472 42.8494 102.642C49.5238 123.936 47.744 148.238 45.6082 150.844C43.4724 153.45 36.1528 153.562 27.1424 148.038C18.132 142.513 4.53857 118.435 4.53857 118.435C6.9936 126.284 10.0507 133.932 13.6825 141.311Z" fill="#FF7F85"/>
<path style="mix-blend-mode:multiply" opacity="0.5" fill-rule="evenodd" clip-rule="evenodd" d="M4.47183 118.457C12.3031 143.716 29.5007 172.673 47.7217 183.811L72.5504 189.892C92.2168 191.867 112.068 190.876 131.441 186.951C131.441 186.951 140.34 182.897 144.033 177.485C144.033 177.485 198.941 169.421 224.125 160.133C228.575 158.507 253.403 123.446 247.797 70.388C247.797 70.388 245.906 88.9874 237.719 96.4494C237.719 96.4494 244.082 159.064 190.308 164.454C119.872 171.515 116.89 116.831 116.89 116.831L100.649 99.1669C100.617 101.194 100.013 103.171 98.9067 104.87C97.8006 106.568 96.2375 107.92 94.3978 108.767C87.7234 112.487 84.631 108.767 84.631 108.767C84.631 109.168 85.8768 116.942 79.4472 120.862C73.0176 124.783 52.5273 117.699 51.0366 110.304C51.0366 110.304 51.7041 115.873 49.0121 117.12C46.3201 118.368 34.017 109.948 34.017 109.948C34.017 109.948 23.3158 120.061 13.638 118.212L4.47183 118.457Z" fill="url(#paint13_linear)"/>
<path fill-rule="evenodd" clip-rule="evenodd" d="M228.019 125.34C228.019 125.34 226.395 138.705 216.249 139.551C206.104 140.397 201.61 123.29 201.61 123.29L228.019 125.34Z" fill="#E16070"/>
<path fill-rule="evenodd" clip-rule="evenodd" d="M172.332 124.827C172.332 124.827 173.378 150.042 149.35 152.671C125.322 155.299 119.827 131.443 119.827 131.443L172.332 124.827Z" fill="#E16070"/>
<path fill-rule="evenodd" clip-rule="evenodd" d="M171.731 112.398C171.731 112.398 176.559 133.336 162.499 144.273C149.15 154.676 130.373 149.864 124.076 140.932C117.78 132 117.869 119.014 117.869 119.014C119.827 112.799 142.52 84.0647 171.731 112.398Z" fill="url(#paint14_linear)"/>
<path d="M153.8 132.98C160.975 132.98 166.792 127.156 166.792 119.972C166.792 112.787 160.975 106.963 153.8 106.963C146.624 106.963 140.807 112.787 140.807 119.972C140.807 127.156 146.624 132.98 153.8 132.98Z" fill="#37193E"/>
<g style="mix-blend-mode:multiply">
<path fill-rule="evenodd" clip-rule="evenodd" d="M172.332 117.299C172.332 117.299 159.784 105.382 137.225 111.284C120.873 115.539 118.982 125.83 118.982 125.83C118.144 123.659 117.765 121.338 117.869 119.014C117.869 119.014 121.852 103.8 140.807 100.682C159.762 97.5631 171.731 112.398 171.731 112.398C172.154 113.997 172.356 115.645 172.332 117.299Z" fill="#D8CBD9"/>
</g>
<path fill-rule="evenodd" clip-rule="evenodd" d="M228.797 114.158C228.797 114.158 230.577 136.432 217.095 137.591C203.613 138.749 199.297 119.014 199.653 111.307C199.653 111.307 204.102 100.993 214.18 100.169C226.884 99.3229 228.797 114.158 228.797 114.158Z" fill="url(#paint15_linear)"/>
<g style="mix-blend-mode:multiply">
<path fill-rule="evenodd" clip-rule="evenodd" d="M228.842 111.618V115.851C228.842 115.851 226.795 107.676 215.493 107.676C203.279 107.676 200.075 115.138 200.075 115.138C199.688 113.9 199.544 112.599 199.653 111.307C199.653 111.307 203.946 101.194 214.18 100.169C224.414 99.1446 228.842 111.618 228.842 111.618Z" fill="#D8CBD9"/>
</g>
<path fill-rule="evenodd" clip-rule="evenodd" d="M226.884 113C226.884 118.902 223.28 123.669 218.83 123.669C214.381 123.669 210.799 118.902 210.799 113C210.799 107.097 214.403 102.33 218.83 102.33C223.258 102.33 226.884 107.119 226.884 113Z" fill="#37193E"/>
<path fill-rule="evenodd" clip-rule="evenodd" d="M144.033 177.396C144.033 177.396 114.376 179.289 95.5992 178.019C76.822 176.75 52.327 162.427 52.327 162.427C52.327 162.427 33.0381 157.616 26.6307 162.895C26.6307 162.895 39.6457 182.608 54.8633 189.29C70.0808 195.973 123.231 190.003 132.731 186.818C137.479 185.091 141.476 181.758 144.033 177.396Z" fill="url(#paint16_linear)"/>
<path fill-rule="evenodd" clip-rule="evenodd" d="M200.542 71.8582C200.542 71.8582 192.066 70.4771 190.264 68.8288L181.498 75.5112C181.498 75.5112 183.434 62.5473 188.173 55.7981C188.084 55.8872 197.406 70.7222 200.542 71.8582Z" fill="#E16070"/>
<path fill-rule="evenodd" clip-rule="evenodd" d="M221.989 51.3209L225.772 49.7394L216.895 47.4897L219.987 51.6551L219.876 53.9048L221.989 51.3209Z" fill="#E16070"/>
<path fill-rule="evenodd" clip-rule="evenodd" d="M229.576 72.7714C229.576 72.7714 227.574 78.5851 224.615 79.4538C221.656 80.3225 215.538 78.5851 215.538 78.5851C215.538 78.5851 223.169 82.2382 226.817 81.2358C230.466 80.2335 229.576 72.7714 229.576 72.7714Z" fill="#E16070"/>
<path fill-rule="evenodd" clip-rule="evenodd" d="M150.663 85.2675C150.663 85.2675 141.207 88.6978 136.157 87.2722C132.864 86.3367 123.787 80.1443 123.787 80.1443C123.787 80.1443 132.041 89.0542 137.714 89.7893C143.388 90.5243 150.663 85.2675 150.663 85.2675Z" fill="#E16070"/>
<path fill-rule="evenodd" clip-rule="evenodd" d="M202.033 103.11L194.358 111.619L181.365 109.102L187.06 113.69L194.78 120.773C194.78 120.773 201.41 108.879 202.033 103.11Z" fill="#E16070"/>
<path fill-rule="evenodd" clip-rule="evenodd" d="M232.112 113C232.112 113 230.243 95.7366 218.764 94.2888C204.725 92.5068 198.74 106.607 198.74 106.607L199.519 111.307C199.519 111.307 204.258 100.169 215.36 100.169C224.704 100.125 232.112 113 232.112 113Z" fill="#E16070"/>
<path fill-rule="evenodd" clip-rule="evenodd" d="M174.357 109.102C174.357 109.102 168.35 95.9594 146.124 94.2888C133.487 93.3533 118.092 102.063 112.953 112.665L114.043 119.214C117.028 113.747 121.357 109.132 126.62 105.807C131.884 102.482 137.908 100.557 144.122 100.214C165.613 99.0333 174.357 109.102 174.357 109.102Z" fill="#E16070"/>
<path fill-rule="evenodd" clip-rule="evenodd" d="M87.3452 119.504C87.3452 119.504 88.9025 126.186 87.0115 128.102C85.1204 130.017 74.7529 132.044 74.7529 132.044C74.7529 132.044 85.9881 132.802 89.125 130.084C92.262 127.367 87.3452 119.504 87.3452 119.504Z" fill="#E16070"/>
<path fill-rule="evenodd" clip-rule="evenodd" d="M73.2623 64.0844C73.2623 64.0844 61.2262 70.4104 57.8 70.9004C54.3738 71.3904 43.2944 65.755 43.2944 65.755C44.85 68.5165 47.1133 70.8126 49.8509 72.4062C52.5885 73.9999 55.7012 74.8334 58.8679 74.8208C64.5417 72.6007 69.5139 68.8921 73.2623 64.0844Z" fill="#E16070"/>
<path fill-rule="evenodd" clip-rule="evenodd" d="M66.6992 55.5976L65.1196 51.8109L63.629 49.6503L62.0716 50.8977L54.6186 51.4768L66.6992 55.5976Z" fill="#E16070"/>
<path fill-rule="evenodd" clip-rule="evenodd" d="M107.368 48.9375C107.368 48.9375 105.144 53.0583 106.167 55.7758C107.51 58.6949 109.056 61.5159 110.794 64.2179C110.794 64.2179 102.852 59.763 101.895 56.2213C100.939 52.6797 107.368 48.9375 107.368 48.9375Z" fill="#E16070"/>
<path fill-rule="evenodd" clip-rule="evenodd" d="M185.903 14.1667C185.903 14.1667 179.029 18.7998 176.025 19.0448C173.022 19.2899 164.568 15.8596 164.568 15.8596C167.247 15.8758 169.924 15.6972 172.577 15.325C173.845 14.8795 174.401 12.8079 174.401 12.8079C175.73 14.0231 177.345 14.8814 179.095 15.3027C181.414 15.3316 183.719 14.9469 185.903 14.1667Z" fill="#E16070"/>
<path fill-rule="evenodd" clip-rule="evenodd" d="M47.299 133.425C47.299 133.425 48.2111 148.26 45.4524 150.844C42.6937 153.428 37.0649 152.225 37.0649 152.225C37.0649 152.225 40.4689 154.921 51.0589 150.844C51.0589 150.844 52.3937 151.156 52.3048 145.498C52.2158 139.841 47.299 133.425 47.299 133.425Z" fill="#E16070"/>
<path fill-rule="evenodd" clip-rule="evenodd" d="M34.7512 116.519C34.7512 116.519 36.8203 129.371 28.0768 131.599C25.83 131.174 23.7876 130.015 22.2701 128.302C23.0348 130.212 24.2396 131.914 25.7861 133.269C27.3327 134.623 29.1772 135.593 31.1693 136.098C31.1693 136.098 37.7992 129.817 34.7512 116.519Z" fill="#E16070"/>
<path fill-rule="evenodd" clip-rule="evenodd" d="M115.066 155.566C115.066 155.566 110.839 153.896 102.185 157.148C93.5301 160.4 90.6379 163.83 90.6379 163.83C90.6379 163.83 93.6636 155.277 100.805 152.827C107.947 150.376 115.066 155.566 115.066 155.566Z" fill="#E16070"/>
<path fill-rule="evenodd" clip-rule="evenodd" d="M40.6246 45.3513C40.6246 45.3513 33.9502 55.1299 34.8402 56.7782C35.6942 59.4178 37.4103 61.6931 39.7125 63.2378C39.7125 63.2378 33.2161 62.3246 31.1915 58.6715C29.167 55.0185 40.6246 45.3513 40.6246 45.3513Z" fill="#E16070"/>
<path fill-rule="evenodd" clip-rule="evenodd" d="M18.8662 91.2594C17.8285 96.9144 17.8285 102.711 18.8662 108.366C17.6972 104.821 16.9504 101.15 16.6414 97.4295C16.5437 96.3011 16.6921 95.1649 17.0762 94.0995C17.4604 93.0342 18.0711 92.0651 18.8662 91.2594Z" fill="#E16070"/>
<path fill-rule="evenodd" clip-rule="evenodd" d="M71.3935 277.075C86.1022 278.447 100.936 277.409 115.311 274.001C113.446 255.722 113.104 237.319 114.287 218.982C114.844 210.073 115.711 202.522 116.512 196.285C117.285 190.287 118.391 184.338 119.827 178.465H108.28C105.981 185.363 104.422 192.486 103.631 199.715C103.386 201.653 103.163 203.68 102.985 205.774C102.763 208.558 102.541 211.543 102.34 214.683C101.473 227.157 100.583 241.124 98.3134 248.652C95.6659 257.384 73.6628 267.296 73.6628 267.296C71.8231 270.205 71.023 273.652 71.3935 277.075Z" fill="url(#paint17_linear)"/>
<path fill-rule="evenodd" clip-rule="evenodd" d="M71.3935 277.075C86.1022 278.447 100.936 277.409 115.311 274.001C113.446 255.722 113.104 237.319 114.287 218.983L102.452 214.528C101.584 227.001 100.694 240.968 98.4247 248.496C95.7772 257.228 73.774 267.14 73.774 267.14C71.8605 270.078 71.0195 273.588 71.3935 277.075Z" fill="url(#paint18_linear)"/>
<path fill-rule="evenodd" clip-rule="evenodd" d="M115.311 274.001V277.721C100.85 280.857 85.9439 281.363 71.3045 279.213V276.986C71.3045 276.986 87.0115 278.077 115.311 274.001Z" fill="url(#paint19_linear)"/>
<g style="mix-blend-mode:multiply">
<path fill-rule="evenodd" clip-rule="evenodd" d="M103.742 199.559C105.429 197.96 107.495 196.82 109.746 196.247C111.997 195.674 114.357 195.687 116.601 196.285C117.374 190.287 118.48 184.338 119.916 178.465H108.369C106.088 185.313 104.537 192.384 103.742 199.559Z" fill="#5E364C"/>
</g>
<g style="mix-blend-mode:soft-light" opacity="0.7">
<path fill-rule="evenodd" clip-rule="evenodd" d="M73.774 267.074C73.774 267.074 93.7971 267.074 105.166 257.696L95.6214 252.729C95.6214 252.729 88.8358 261.505 73.774 267.074Z" fill="white"/>
</g>
<g style="mix-blend-mode:soft-light" opacity="0.7">
<path fill-rule="evenodd" clip-rule="evenodd" d="M152.309 24.0121C152.309 24.0121 158.983 34.0134 164.568 35.4613C166.471 37.4614 168.226 39.598 169.818 41.8542C170.552 43.3688 166.258 53.927 160.096 58.2706C156.198 60.9333 151.734 62.6493 147.059 63.2824C147.059 63.2824 133.287 60.899 124.655 61.9236C128.077 65.1837 132.516 67.1657 137.225 67.5369C144.812 67.9824 146.124 64.2625 147.148 63.9284C148.171 63.5942 157.115 64.2625 166.058 59.2952C169.087 57.8271 171.514 55.3533 172.925 52.295C174.337 49.2368 174.646 45.7833 173.801 42.5224C172.599 39.649 167.126 38.0675 165.213 35.35C163.3 32.6324 164.812 31.4519 162.677 27.7097C160.541 23.9676 152.309 24.0121 152.309 24.0121Z" fill="white"/>
</g>
<g style="mix-blend-mode:soft-light" opacity="0.7">
<path fill-rule="evenodd" clip-rule="evenodd" d="M142.142 33.3897C142.142 33.3897 133.243 26.7073 126.19 28.3111C119.137 29.9149 111.684 44.4825 112.641 48.9152C114.862 46.2421 116.942 43.4539 118.87 40.5622C122.03 35.8177 120.784 33.1893 122.697 31.0286C123.271 30.2615 124.049 29.6712 124.942 29.3246C125.835 28.9781 126.807 28.8894 127.747 29.0684C128.771 29.4026 131.885 34.1916 135.779 33.8798C139.672 33.5679 142.142 33.3897 142.142 33.3897Z" fill="white"/>
</g>
<g style="mix-blend-mode:soft-light" opacity="0.7">
<path fill-rule="evenodd" clip-rule="evenodd" d="M60.6478 19.4235C60.6478 19.4235 84.2083 19.1117 88.2574 22.297C92.3065 25.4823 86.7891 38.7802 82.2505 41.4532C81.1564 39.2483 80.7753 36.757 81.1603 34.3253C81.939 30.8059 88.8136 27.6429 88.5466 24.9922C88.2796 22.3415 84.3418 19.9358 77.4227 21.0496C70.5036 22.1633 62.0271 23.433 60.6478 19.4235Z" fill="white"/>
</g>
<g style="mix-blend-mode:soft-light" opacity="0.7">
<path fill-rule="evenodd" clip-rule="evenodd" d="M122.586 88.2524C122.586 88.2524 111.262 87.8514 106.122 82.6614C100.983 77.4714 101.206 72.7715 96.7338 68.6729C92.262 64.5744 78.3571 68.6729 74.5972 72.326C74.5972 72.326 74.7529 75.0658 78.7797 73.8407C82.8066 72.6156 84.0303 68.8066 88.1684 67.9156C92.3065 67.0246 95.7994 67.6483 96.8673 69.4748C97.9352 71.3013 95.8217 77.1151 97.8907 82.4387C99.9598 87.7624 105.21 85.1562 111.751 88.2747C118.292 91.3931 119.582 91.3263 119.582 91.3263C120.387 91.3146 121.154 90.9848 121.717 90.409C122.279 89.8331 122.592 89.0579 122.586 88.2524Z" fill="white"/>
</g>
<g style="mix-blend-mode:soft-light" opacity="0.7">
<path fill-rule="evenodd" clip-rule="evenodd" d="M210.554 18.5548C210.554 18.5548 201.232 16.9288 197.873 18.7553C194.513 20.5818 192.177 32.8997 192.177 32.8997C192.177 32.8997 189.552 23.2771 192.511 16.3496C195.47 9.42222 210.554 18.5548 210.554 18.5548Z" fill="white"/>
</g>
<g style="mix-blend-mode:soft-light" opacity="0.7">
<path fill-rule="evenodd" clip-rule="evenodd" d="M40.6246 134.205C41.7832 125.501 42.0664 116.703 41.4701 107.943C40.3132 96.1376 33.9503 91.0144 32.5709 88.9874C31.1915 86.9604 23.2935 77.8501 18.399 78.5406C13.5045 79.2311 11.9471 88.6979 11.9471 88.6979C11.9471 88.6979 14.1719 79.4539 18.0653 79.4093C21.9587 79.3648 23.605 83.3296 25.5851 85.0894C27.5651 86.8491 31.948 87.6732 35.1516 93.9992C38.3553 100.325 36.7535 113.111 37.243 119.058C37.9591 124.19 39.09 129.256 40.6246 134.205Z" fill="white"/>
</g>
<g style="mix-blend-mode:soft-light" opacity="0.7">
<path fill-rule="evenodd" clip-rule="evenodd" d="M99.9375 111.284C96.9082 104.221 93.4687 97.3413 89.6367 90.6802C85.4986 84.2429 72.3724 84.822 63.4955 88.6978C64.2299 89.5764 65.1493 90.2816 66.1877 90.763C67.2262 91.2443 68.3581 91.4899 69.5024 91.4821C73.7517 91.7272 80.4039 88.1187 83.7633 88.1409C87.1227 88.1632 85.6766 94.957 88.2129 102.018C90.7491 109.079 99.9375 111.284 99.9375 111.284Z" fill="white"/>
</g>
<g style="mix-blend-mode:soft-light" opacity="0.7">
<path fill-rule="evenodd" clip-rule="evenodd" d="M224.592 88.2078C224.592 88.2078 220.254 81.6813 203.946 85.0893C203.946 85.0893 216.383 89.8784 224.592 88.2078Z" fill="white"/>
</g>
<g style="mix-blend-mode:soft-light" opacity="0.7">
<path fill-rule="evenodd" clip-rule="evenodd" d="M135.045 158.752C135.045 158.752 126.146 142.87 113.153 143.917C115.113 148.146 118.186 151.762 122.043 154.375C125.9 156.989 130.394 158.502 135.045 158.752Z" fill="white"/>
</g>
<path fill-rule="evenodd" clip-rule="evenodd" d="M220.543 42.5224C220.543 42.5224 216.094 36.1964 212.022 37.2878C210.891 37.5069 209.829 37.9985 208.93 38.7204C208.031 39.4423 207.32 40.3726 206.861 41.4309C206.861 41.4309 218.719 41.2527 220.543 42.5224Z" fill="white"/>
<path fill-rule="evenodd" clip-rule="evenodd" d="M153.822 4.12088C153.822 4.12088 146.458 8.88767 135.801 3.43037C135.801 3.38582 145.835 -0.356338 153.822 4.12088Z" fill="white"/>
<g style="mix-blend-mode:multiply">
<path fill-rule="evenodd" clip-rule="evenodd" d="M292.537 147.481C292.537 147.481 305.063 137.969 304.195 128.369L292.537 131.421V147.481Z" fill="#BE364C"/>
</g>
<path fill-rule="evenodd" clip-rule="evenodd" d="M142.142 33.3898C142.142 33.3898 137.069 36.3077 133.243 33.3898C131.193 31.9942 129.494 30.1413 128.281 27.977C128.281 27.977 138.805 28.4671 142.142 33.3898Z" fill="white"/>
<path fill-rule="evenodd" clip-rule="evenodd" d="M147.059 63.2824C147.059 63.2824 131.263 59.5402 124.655 61.9236C124.655 61.9236 127.347 67.225 137.225 67.5369C147.103 67.8487 147.059 63.2824 147.059 63.2824Z" fill="white"/>
<path fill-rule="evenodd" clip-rule="evenodd" d="M84.0525 21.2055C84.0525 21.2055 77.2002 17.5747 60.6255 19.4903C60.6255 19.4903 61.2262 23.7448 67.1441 23.4998C72.816 23.0275 78.4597 22.2617 84.0525 21.2055Z" fill="white"/>
<path fill-rule="evenodd" clip-rule="evenodd" d="M83.2071 86.515C79.5615 88.8536 75.5204 90.5067 71.2822 91.3931C69.8623 91.71 68.3824 91.6258 67.0075 91.1499C65.6326 90.674 64.4167 89.8251 63.4955 88.6979C69.7084 86.0445 76.5651 85.2852 83.2071 86.515Z" fill="white"/>
<path fill-rule="evenodd" clip-rule="evenodd" d="M27.6987 83.4187C27.6987 83.4187 24.5395 77.36 20.1566 77.4937C18.9188 77.5141 17.7184 77.9227 16.7247 78.6619C15.7309 79.4011 14.9937 80.4338 14.6169 81.6145C17.2456 80.6796 20.1243 80.7351 22.7151 81.7704L27.6987 83.4187Z" fill="white"/>
<g style="mix-blend-mode:multiply">
<path fill-rule="evenodd" clip-rule="evenodd" d="M194.513 194.458C194.513 194.458 193.112 199.559 184.413 204.326C184.413 204.326 181.899 173.631 181.721 170.758L190.887 168.953C190.887 168.953 193.401 187.375 194.513 194.458Z" fill="#5E364C"/>
</g>
<path fill-rule="evenodd" clip-rule="evenodd" d="M303.15 132.089C300.569 136.544 293.45 137.635 293.45 137.635L293.783 162.382L288.889 161.959C288.889 161.959 275.74 172.362 259.41 171.337C258.621 171.306 257.833 171.232 257.052 171.114C239.654 168.887 233.692 146.746 233.692 146.746L239.365 135.608C239.365 135.608 243.815 157.282 259.544 158.752C260.164 158.821 260.788 158.858 261.413 158.863C265.873 158.907 270.268 157.791 274.167 155.624C278.067 153.457 281.338 150.313 283.661 146.501C284.172 145.342 284.172 135.23 285.485 132.735C286.797 130.24 297.254 123.825 303.061 123.558C303.814 124.85 304.218 126.316 304.233 127.812C304.249 129.307 303.875 130.781 303.15 132.089Z" fill="url(#paint20_linear)"/>
<path fill-rule="evenodd" clip-rule="evenodd" d="M317.989 133.114C317.55 135.066 317.319 137.06 317.299 139.061L315.675 139.796C314.585 141.842 314.187 144.187 314.541 146.478L315.097 147.013C313.895 149.094 313.245 151.448 313.206 153.851L315.431 155.388C314.816 157.268 314.413 159.21 314.229 161.18C314.229 161.18 315.653 162.962 320.058 162.383C321.079 160.813 321.754 159.044 322.038 157.193L321.237 156.814C322.699 154.547 323.802 152.067 324.508 149.463L325.598 149.129C326.855 146.297 327.687 143.295 328.067 140.219L327.177 139.774C328.035 137.64 328.553 135.385 328.713 133.091C325.196 132.17 321.501 132.177 317.989 133.114Z" fill="url(#paint21_linear)"/>
<path fill-rule="evenodd" clip-rule="evenodd" d="M303.15 132.089C300.569 136.544 293.783 137.591 293.783 137.591V162.382L288.889 161.959C288.889 161.959 275.74 172.362 259.41 171.337C257.653 162.895 261.413 158.863 261.413 158.863C265.873 158.907 270.268 157.791 274.167 155.624C278.067 153.457 281.338 150.313 283.661 146.501C284.172 145.342 284.172 135.23 285.485 132.735C286.798 130.24 297.254 123.825 303.061 123.558C303.814 124.85 304.218 126.316 304.233 127.812C304.249 129.307 303.876 130.781 303.15 132.089Z" fill="url(#paint22_linear)"/>
<g style="mix-blend-mode:multiply">
<path fill-rule="evenodd" clip-rule="evenodd" d="M242.102 143.872C242.102 143.872 238.319 146.545 239.187 158.752C236.745 155.047 234.863 151.001 233.603 146.746L239.276 135.608C239.276 135.608 241.367 142.335 242.102 143.872Z" fill="#5E364C"/>
</g>
<path fill-rule="evenodd" clip-rule="evenodd" d="M293.672 137.591L292.515 147.503L293.672 162.383V137.591Z" fill="#FF7F85"/>
<path fill-rule="evenodd" clip-rule="evenodd" d="M317.299 139.061C320.603 138.964 323.908 139.226 327.155 139.841L317.322 137.992L317.299 139.061Z" fill="#FF7F85"/>
<path fill-rule="evenodd" clip-rule="evenodd" d="M314.541 146.523C317.632 148.151 321.009 149.164 324.485 149.508C321.268 149.077 318.115 148.254 315.097 147.058L314.541 146.523Z" fill="#FF7F85"/>
<path fill-rule="evenodd" clip-rule="evenodd" d="M313.206 153.896C315.67 155.37 318.385 156.374 321.215 156.858C319.232 156.604 317.284 156.126 315.408 155.433L313.206 153.896Z" fill="#FF7F85"/>
<path fill-rule="evenodd" clip-rule="evenodd" d="M224.503 123.29C224.453 123.76 224.23 124.194 223.879 124.51C223.528 124.825 223.073 125 222.601 125C222.129 125 221.674 124.825 221.323 124.51C220.972 124.194 220.75 123.76 220.699 123.29C220.67 123.023 220.698 122.753 220.78 122.497C220.863 122.241 220.998 122.005 221.177 121.805C221.357 121.604 221.576 121.444 221.822 121.335C222.067 121.225 222.333 121.169 222.601 121.169C222.87 121.169 223.136 121.225 223.381 121.335C223.626 121.444 223.846 121.604 224.025 121.805C224.205 122.005 224.34 122.241 224.422 122.497C224.505 122.753 224.532 123.023 224.503 123.29Z" fill="white"/>
<path fill-rule="evenodd" clip-rule="evenodd" d="M183.011 201.63L180.497 204.192V208.647C180.497 208.647 164.189 215.329 158.249 214.55C154.116 213.707 150.182 212.081 146.658 209.761C146.658 209.761 127.614 213.392 107.279 199.737L104.254 197.643C85.9881 184.524 76.822 170.424 70.4591 160.823C67.6289 156.948 65.795 152.434 65.1196 147.681C64.9187 146.165 65.1421 144.623 65.7648 143.226C66.3313 142.111 67.2904 141.246 68.4567 140.798C73.3513 138.927 82.2727 145.699 87.4565 154.029C92.6402 162.36 85.2317 162.939 85.2317 162.939C85.2317 162.939 95.9329 180.135 110.261 189.045C122.586 196.663 143.343 195.037 143.343 195.037C142.24 193.138 141.373 191.111 140.762 189.001C140.762 189.001 143.388 182.675 142.854 181.271C142.32 179.868 132.241 175.525 132.241 175.525C131.819 172.25 137.381 169.243 137.381 169.243C141.474 167.996 149.328 172.807 149.906 174.032C150.485 175.257 150.129 178.331 150.218 181.338C150.31 183.296 150.731 185.223 151.464 187.041C151.464 187.041 155.29 187.308 163.878 181.583C170.398 177.096 175.938 171.329 180.163 164.632C185.058 164.32 189.263 171.092 189.263 171.092C183.886 173.862 179.295 177.945 175.914 182.964L180.119 189.647L179.407 192.854L183.011 201.63Z" fill="url(#paint23_linear)"/>
<path fill-rule="evenodd" clip-rule="evenodd" d="M104.432 197.688C105.388 198.378 106.412 199.069 107.435 199.759C127.77 213.436 146.836 209.805 146.836 209.805C150.363 212.121 154.296 213.746 158.427 214.594C164.234 215.463 180.675 211.676 180.675 211.676L180.497 204.17L183.011 201.631L179.607 192.988L180.341 189.78L176.137 183.098C179.528 178.094 184.117 174.02 189.485 171.248C189.485 171.248 185.28 164.565 180.386 164.788C175.769 170.953 170.24 176.376 163.989 180.87C161.107 182.96 158.038 184.779 154.823 186.305C154.823 186.305 151.219 184.791 151.13 181.851C151.192 179.284 150.862 176.722 150.151 174.255C149.55 173.03 141.697 168.218 137.625 169.444C137.625 169.444 132.041 172.473 132.464 175.747C132.464 175.747 142.475 180.069 143.054 181.472C143.632 182.875 140.985 189.223 140.985 189.223C141.606 191.33 142.472 193.356 143.566 195.26C143.566 195.26 122.831 196.886 110.483 189.268C108.723 189.91 107.202 191.076 106.124 192.609C105.046 194.142 104.464 195.969 104.454 197.844L104.432 197.688Z" fill="url(#paint24_linear)"/>
<path fill-rule="evenodd" clip-rule="evenodd" d="M143.521 195.082L144.367 202.833L138.738 195.238L143.521 195.082Z" fill="#FF7F85"/>
<path fill-rule="evenodd" clip-rule="evenodd" d="M176.114 182.987L173.511 186.818L177.36 192.253C177.36 192.253 178.072 196.708 178.317 200.227V201.631L179.518 211.944L180.742 211.676L180.564 204.17L183.011 201.631L179.741 192.431L180.341 189.78L176.114 182.987Z" fill="#FF7F85"/>
<path fill-rule="evenodd" clip-rule="evenodd" d="M117.869 119.014C117.869 119.014 119.493 104.156 140.807 98.5878C163.344 92.685 177.004 111.953 177.004 111.953L172.176 115.695L171.731 112.42C171.731 112.42 163.121 102.129 144.033 102.308C126.657 102.441 117.869 119.014 117.869 119.014Z" fill="#4B3052"/>
<path fill-rule="evenodd" clip-rule="evenodd" d="M199.653 111.307C199.653 111.307 202.033 98.5433 214.826 96.9395C227.618 95.3357 232.112 111.93 232.112 111.93L228.864 115.138V114.158C228.864 114.158 225.505 99.9466 214.247 100.258C204.658 100.526 199.653 111.307 199.653 111.307Z" fill="#4B3052"/>
<path fill-rule="evenodd" clip-rule="evenodd" d="M161.408 131.421C161.408 132.024 161.23 132.614 160.895 133.116C160.56 133.618 160.084 134.009 159.527 134.24C158.97 134.471 158.357 134.531 157.766 134.414C157.175 134.296 156.631 134.005 156.205 133.579C155.779 133.152 155.489 132.608 155.371 132.016C155.253 131.424 155.314 130.811 155.545 130.253C155.775 129.695 156.166 129.219 156.667 128.883C157.168 128.548 157.758 128.369 158.36 128.369C158.761 128.369 159.157 128.448 159.527 128.601C159.897 128.755 160.233 128.98 160.516 129.263C160.799 129.546 161.023 129.883 161.176 130.253C161.33 130.623 161.408 131.02 161.408 131.421Z" fill="white"/>
<g style="mix-blend-mode:multiply">
<path fill-rule="evenodd" clip-rule="evenodd" d="M85.4319 162.984C85.4319 162.984 78.8688 148.26 65.2753 147.726C65.0745 146.21 65.2978 144.667 65.9205 143.271C66.487 142.156 67.4461 141.291 68.6125 140.843C73.507 138.972 82.4284 145.743 87.6122 154.074C92.7959 162.405 85.4319 162.984 85.4319 162.984Z" fill="#5E364C"/>
</g>
<path fill-rule="evenodd" clip-rule="evenodd" d="M279.189 77.4046V68.1383L258.854 52.1228V61.3668L279.189 77.4046Z" fill="url(#paint25_linear)"/>
<g style="mix-blend-mode:soft-light" opacity="0.7">
<path fill-rule="evenodd" clip-rule="evenodd" d="M362.44 75.1325C352.629 78.1396 340.971 80.0329 330.604 77.2263C332.152 72.5762 333.109 67.749 333.451 62.8592C334.72 43.8366 319.435 36.4191 304.04 40.0722C301.406 28.3469 299.717 16.4287 298.989 4.43265C306.63 2.52968 314.628 2.59098 322.238 4.61085C353.63 12.162 369.893 43.7698 362.44 75.1325Z" fill="white"/>
</g>
<path fill-rule="evenodd" clip-rule="evenodd" d="M315.03 3.25214C315.03 3.25214 315.03 9.51133 319.48 12.162C323.929 14.8127 331.605 7.70708 331.605 7.70708C326.326 5.42217 320.742 3.92135 315.03 3.25214Z" fill="white"/>
<path style="mix-blend-mode:multiply" opacity="0.5" fill-rule="evenodd" clip-rule="evenodd" d="M193.801 144.429C193.801 144.429 194.758 156.992 200.476 157.348C206.193 157.705 205.437 140.977 205.437 140.977L193.801 144.429Z" fill="url(#paint26_linear)"/>
<path fill-rule="evenodd" clip-rule="evenodd" d="M205.437 144.429C205.437 149.307 202.834 153.339 199.608 153.339C196.382 153.339 193.801 149.396 193.801 144.429C193.801 139.462 196.404 135.519 199.608 135.519C202.812 135.519 205.437 139.551 205.437 144.429Z" fill="url(#paint27_linear)"/>
<g style="mix-blend-mode:soft-light" opacity="0.7">
<path fill-rule="evenodd" clip-rule="evenodd" d="M201.499 154.408C201.499 154.408 203.056 151.223 204.258 151.267C204.294 151.657 204.251 152.051 204.13 152.423C204.01 152.796 203.814 153.14 203.556 153.434C203.297 153.728 202.982 153.966 202.628 154.134C202.274 154.301 201.89 154.395 201.499 154.408Z" fill="white"/>
</g>
<path fill-rule="evenodd" clip-rule="evenodd" d="M288.444 175.458L287.443 193.389H321.015L320.08 175.458H288.444Z" fill="url(#paint28_linear)"/>
<path fill-rule="evenodd" clip-rule="evenodd" d="M287.443 193.389L290.735 199.871H318.746L321.015 193.389H287.443Z" fill="url(#paint29_linear)"/>
<g style="mix-blend-mode:multiply">
<path fill-rule="evenodd" clip-rule="evenodd" d="M336.967 115.138L342.84 118.925C342.84 118.925 352.829 108.678 356.567 100.125L354.008 95.3802C349.78 103.093 343.972 109.826 336.967 115.138Z" fill="#BE368C"/>
</g>
<g style="mix-blend-mode:soft-light" opacity="0.7">
<path fill-rule="evenodd" clip-rule="evenodd" d="M292.537 175.436C292.537 175.436 303.973 189.068 320.77 188.622L320.08 175.436H292.537Z" fill="white"/>
</g>
<defs>
<linearGradient id="paint0_linear" x1="298.277" y1="74.2861" x2="289.491" y2="20.808" gradientUnits="userSpaceOnUse">
<stop offset="0.01" stop-color="#800043"/>
<stop offset="1" stop-color="#731653"/>
</linearGradient>
<linearGradient id="paint1_linear" x1="329.981" y1="166.927" x2="303.845" y2="7.78398" gradientUnits="userSpaceOnUse">
<stop offset="0.01" stop-color="#800043"/>
<stop offset="1" stop-color="#C41653"/>
</linearGradient>
<linearGradient id="paint2_linear" x1="329.069" y1="160.266" x2="303.312" y2="3.46254" gradientUnits="userSpaceOnUse">
<stop offset="0.01" stop-color="#D01A43"/>
<stop offset="1" stop-color="#FF2E56"/>
</linearGradient>
<linearGradient id="paint3_linear" x1="208.774" y1="273.355" x2="208.774" y2="167.818" gradientUnits="userSpaceOnUse">
<stop stop-color="#684A72"/>
<stop offset="0.99" stop-color="#46255E"/>
</linearGradient>
<linearGradient id="paint4_linear" x1="211.066" y1="273.355" x2="211.066" y2="215.307" gradientUnits="userSpaceOnUse">
<stop offset="0.02" stop-color="#FFA892"/>
<stop offset="1" stop-color="#FFCEA8"/>
</linearGradient>
<linearGradient id="paint5_linear" x1="192.511" y1="272.464" x2="236.072" y2="272.464" gradientUnits="userSpaceOnUse">
<stop offset="0.01" stop-color="#9A1A43"/>
<stop offset="1" stop-color="#731653"/>
</linearGradient>
<linearGradient id="paint6_linear" x1="119.97" y1="185.042" x2="110.588" y2="-3.42651" gradientUnits="userSpaceOnUse">
<stop offset="0.02" stop-color="#FF9F9A"/>
<stop offset="1" stop-color="#FFB2B8"/>
</linearGradient>
<linearGradient id="paint7_linear" x1="141.574" y1="81.9833" x2="133.896" y2="34.5305" gradientUnits="userSpaceOnUse">
<stop offset="0.02" stop-color="#DF8792"/>
<stop offset="0.34" stop-color="#ECB9C0"/>
<stop offset="0.62" stop-color="#F7DFE2"/>
<stop offset="0.86" stop-color="#FDF6F7"/>
<stop offset="1" stop-color="white"/>
</linearGradient>
<linearGradient id="paint8_linear" x1="57472.6" y1="5028.4" x2="57472.6" y2="4266.14" gradientUnits="userSpaceOnUse">
<stop offset="0.02" stop-color="#DF8792"/>
<stop offset="0.34" stop-color="#ECB9C0"/>
<stop offset="0.62" stop-color="#F7DFE2"/>
<stop offset="0.86" stop-color="#FDF6F7"/>
<stop offset="1" stop-color="white"/>
</linearGradient>
<linearGradient id="paint9_linear" x1="20434.1" y1="1892.44" x2="20434.1" y2="1786.36" gradientUnits="userSpaceOnUse">
<stop offset="0.02" stop-color="#DF8792"/>
<stop offset="0.34" stop-color="#ECB9C0"/>
<stop offset="0.62" stop-color="#F7DFE2"/>
<stop offset="0.86" stop-color="#FDF6F7"/>
<stop offset="1" stop-color="white"/>
</linearGradient>
<linearGradient id="paint10_linear" x1="81691.3" y1="3954.63" x2="81691.3" y2="3429.56" gradientUnits="userSpaceOnUse">
<stop offset="0.02" stop-color="#DF8792"/>
<stop offset="0.34" stop-color="#ECB9C0"/>
<stop offset="0.62" stop-color="#F7DFE2"/>
<stop offset="0.86" stop-color="#FDF6F7"/>
<stop offset="1" stop-color="white"/>
</linearGradient>
<linearGradient id="paint11_linear" x1="95069.4" y1="1553.71" x2="95069.4" y2="1372.11" gradientUnits="userSpaceOnUse">
<stop offset="0.02" stop-color="#DF8792"/>
<stop offset="0.34" stop-color="#ECB9C0"/>
<stop offset="0.62" stop-color="#F7DFE2"/>
<stop offset="0.86" stop-color="#FDF6F7"/>
<stop offset="1" stop-color="white"/>
</linearGradient>
<linearGradient id="paint12_linear" x1="28385.3" y1="2058.64" x2="28385.3" y2="1922.49" gradientUnits="userSpaceOnUse">
<stop offset="0.02" stop-color="#DF8792"/>
<stop offset="0.34" stop-color="#ECB9C0"/>
<stop offset="0.62" stop-color="#F7DFE2"/>
<stop offset="0.86" stop-color="#FDF6F7"/>
<stop offset="1" stop-color="white"/>
</linearGradient>
<linearGradient id="paint13_linear" x1="131.52" y1="181.408" x2="116.081" y2="85.9953" gradientUnits="userSpaceOnUse">
<stop offset="0.02" stop-color="#DF8792"/>
<stop offset="1" stop-color="#FFD0C6"/>
</linearGradient>
<linearGradient id="paint14_linear" x1="140.723" y1="145.593" x2="132.723" y2="96.1551" gradientUnits="userSpaceOnUse">
<stop stop-color="white"/>
<stop offset="0.98" stop-color="#FAC8CD"/>
</linearGradient>
<linearGradient id="paint15_linear" x1="35313.7" y1="5748.43" x2="35313.7" y2="5118.71" gradientUnits="userSpaceOnUse">
<stop stop-color="white"/>
<stop offset="0.98" stop-color="#FAC8CD"/>
</linearGradient>
<linearGradient id="paint16_linear" x1="132.405" y1="160.153" x2="20.0469" y2="178.29" gradientUnits="userSpaceOnUse">
<stop stop-color="#B44263"/>
<stop offset="0.98" stop-color="#EF5666"/>
</linearGradient>
<linearGradient id="paint17_linear" x1="-59002.4" y1="26084.7" x2="-59002.4" y2="21657.5" gradientUnits="userSpaceOnUse">
<stop stop-color="#684A72"/>
<stop offset="0.99" stop-color="#46255E"/>
</linearGradient>
<linearGradient id="paint18_linear" x1="-53313.5" y1="16702.6" x2="-53313.5" y2="14909.6" gradientUnits="userSpaceOnUse">
<stop offset="0.02" stop-color="#FFA892"/>
<stop offset="1" stop-color="#FFCEA8"/>
</linearGradient>
<linearGradient id="paint19_linear" x1="-52881.1" y1="1975.26" x2="-53751.5" y2="1975.26" gradientUnits="userSpaceOnUse">
<stop offset="0.01" stop-color="#9A1A43"/>
<stop offset="1" stop-color="#731653"/>
</linearGradient>
<linearGradient id="paint20_linear" x1="17065.7" y1="10336.2" x2="17065.7" y2="9308.41" gradientUnits="userSpaceOnUse">
<stop stop-color="#684A72"/>
<stop offset="0.99" stop-color="#46255E"/>
</linearGradient>
<linearGradient id="paint21_linear" x1="691.603" y1="7664.53" x2="805.292" y2="7255.75" gradientUnits="userSpaceOnUse">
<stop offset="0.02" stop-color="#FFA892"/>
<stop offset="1" stop-color="#FFCEA8"/>
</linearGradient>
<linearGradient id="paint22_linear" x1="11322.7" y1="10336.2" x2="11322.7" y2="9308.41" gradientUnits="userSpaceOnUse">
<stop offset="0.02" stop-color="#FFA892"/>
<stop offset="1" stop-color="#FFCEA8"/>
</linearGradient>
<linearGradient id="paint23_linear" x1="21800.2" y1="17401.2" x2="21800.2" y2="14938" gradientUnits="userSpaceOnUse">
<stop stop-color="#684A72"/>
<stop offset="0.99" stop-color="#46255E"/>
</linearGradient>
<linearGradient id="paint24_linear" x1="-42911.9" y1="58013.1" x2="-45280.7" y2="57226.3" gradientUnits="userSpaceOnUse">
<stop offset="0.02" stop-color="#FFA892"/>
<stop offset="1" stop-color="#FFCEA8"/>
</linearGradient>
<linearGradient id="paint25_linear" x1="271.291" y1="78.7188" x2="266.719" y2="50.8104" gradientUnits="userSpaceOnUse">
<stop offset="0.01" stop-color="#800043"/>
<stop offset="1" stop-color="#A71653"/>
</linearGradient>
<linearGradient id="paint26_linear" x1="2600.6" y1="3526.53" x2="2645.27" y2="3412.86" gradientUnits="userSpaceOnUse">
<stop offset="0.02" stop-color="#DF8792"/>
<stop offset="1" stop-color="#FFD0C6"/>
</linearGradient>
<linearGradient id="paint27_linear" x1="2607.73" y1="3793.56" x2="2607.73" y2="3652.42" gradientUnits="userSpaceOnUse">
<stop offset="0.01" stop-color="#9A1A43"/>
<stop offset="1" stop-color="#731653"/>
</linearGradient>
<linearGradient id="paint28_linear" x1="4899.57" y1="1752.68" x2="4883.27" y2="1566.48" gradientUnits="userSpaceOnUse">
<stop offset="0.01" stop-color="#D01A43"/>
<stop offset="1" stop-color="#FF2E56"/>
</linearGradient>
<linearGradient id="paint29_linear" x1="4899.57" y1="781.302" x2="4898.49" y2="747.507" gradientUnits="userSpaceOnUse">
<stop offset="0.01" stop-color="#800043"/>
<stop offset="1" stop-color="#A71653"/>
</linearGradient>
</defs>
</svg>
