<svg width="571" height="519" viewBox="0 0 571 519" fill="none" xmlns="http://www.w3.org/2000/svg">
<path fill-rule="evenodd" clip-rule="evenodd" d="M230.044 76.1914L262.976 19.7369H187.404L126.75 124.132L125.021 123.127L185.964 18.2346L186.253 17.7369H186.829H264.143L274.45 0.0672607L276.178 1.075L266.458 17.7369H311.059H311.639L311.927 18.2393L373.456 125.476L373.742 125.974L373.456 126.472L311.927 233.708L311.639 234.211H311.059H283.137L297.572 259.166H371.425L407.392 196.787C406.883 196.177 406.576 195.392 406.576 194.535C406.576 192.593 408.151 191.019 410.092 191.019C412.034 191.019 413.608 192.593 413.608 194.535C413.608 196.477 412.034 198.051 410.092 198.051C409.733 198.051 409.387 197.997 409.06 197.897L372.869 260.666L372.581 261.166H372.003H296.996H296.419L296.13 260.667L280.827 234.211H206.106C205.613 238.27 202.155 241.415 197.963 241.415C193.432 241.415 189.759 237.742 189.759 233.211C189.759 228.68 193.432 225.007 197.963 225.007C202.155 225.007 205.613 228.152 206.106 232.211H279.67L263.027 203.438C262.1 203.745 261.108 203.911 260.078 203.911C254.9 203.911 250.702 199.713 250.702 194.535C250.702 189.357 254.9 185.159 260.078 185.159C265.256 185.159 269.454 189.357 269.454 194.535C269.454 197.969 267.608 200.971 264.855 202.604L281.98 232.211H310.48L371.436 125.974L310.48 19.7369H265.291L231.886 77.0035C232.643 77.6484 233.122 78.6083 233.122 79.6803C233.122 81.6221 231.548 83.1963 229.606 83.1963C227.664 83.1963 226.09 81.6221 226.09 79.6803C226.09 77.7385 227.664 76.1643 229.606 76.1643C229.755 76.1643 229.901 76.1735 230.044 76.1914ZM62.3166 146.572L0.787259 253.809L0.499817 254.31L0.790119 254.809L57.611 352.541C55.2951 354.365 53.8081 357.195 53.8081 360.371C53.8081 365.873 58.2682 370.333 63.77 370.333C69.2718 370.333 73.7319 365.873 73.7319 360.371C73.7319 354.87 69.2718 350.41 63.77 350.41C62.1625 350.41 60.644 350.79 59.2997 351.466L2.80943 254.303L64.0514 147.567L62.3166 146.572ZM87.81 170.095H88.3817H181.555V172.095H88.9535L40.9046 253.721L88.9535 335.346H170.762L129.704 263.004L129.421 262.506L129.707 262.011L168.058 195.535H101.848L67.861 253.715L97.2399 303.012C98.3071 302.59 99.4703 302.358 100.688 302.358C105.866 302.358 110.064 306.556 110.064 311.734C110.064 316.912 105.866 321.11 100.688 321.11C95.5094 321.11 91.3117 316.912 91.3117 311.734C91.3117 308.488 92.961 305.628 95.4673 303.945L65.8409 254.233L65.5389 253.726L65.8365 253.216L100.41 194.031L100.7 193.535H101.274H169.212L191.237 155.36L191.525 154.86H192.103H309.887V156.86H192.68L170.421 195.442V195.535H170.367L131.725 262.515L173.062 335.346H180.987L206.5 292.519L173.072 234.884L174.802 233.881L207.672 290.553L229.919 253.209L231.637 254.232L209.148 291.982H270.77C271.201 290.527 272.547 289.466 274.142 289.466C276.084 289.466 277.658 291.04 277.658 292.982C277.658 294.924 276.084 296.498 274.142 296.498C272.547 296.498 271.201 295.437 270.77 293.982H207.957L182.414 336.858L182.123 337.346H181.555H174.197L192.685 369.919H277.012L300.046 330.519L299.93 330.314H220.23V328.314H300.512H301.094L301.213 328.523L309.61 314.159L311.337 315.169L302.354 330.533L345.331 406.171L345.612 406.667L345.329 407.162L301.379 483.927L301.091 484.43H300.512H257.695L273.839 512.822L272.101 513.81L255.394 484.43H220.23V482.43H255.396L305.435 394.861C304.922 394.25 304.614 393.461 304.614 392.601C304.614 390.659 306.188 389.085 308.129 389.085C310.071 389.085 311.645 390.659 311.645 392.601C311.645 394.543 310.071 396.117 308.129 396.117C307.774 396.117 307.431 396.064 307.107 395.966L257.699 482.43H299.932L343.31 406.663L301.188 332.528L279.329 369.919H305.81C306.014 368.173 307.5 366.817 309.301 366.817C311.243 366.817 312.817 368.392 312.817 370.333C312.817 372.275 311.243 373.849 309.301 373.849C307.93 373.849 306.742 373.064 306.163 371.919H278.159L266.801 391.348L265.075 390.338L275.843 371.919H192.103H191.52L191.233 371.413L171.898 337.346H88.3817H87.81L87.52 336.853L38.8824 254.228L38.5838 253.721L38.8824 253.213L87.52 170.588L87.81 170.095ZM200.313 53.0069L163.192 117.079C161.842 116.397 160.317 116.012 158.701 116.012C153.199 116.012 148.739 120.472 148.739 125.974C148.739 131.476 153.199 135.936 158.701 135.936C164.203 135.936 168.663 131.476 168.663 125.974C168.663 122.805 167.184 119.982 164.878 118.158L202.131 53.8584C202.3 53.8836 202.474 53.8966 202.651 53.8966C204.592 53.8966 206.167 52.3224 206.167 50.3806C206.167 48.4388 204.592 46.8647 202.651 46.8647C200.709 46.8647 199.135 48.4388 199.135 50.3806C199.135 51.4249 199.59 52.3629 200.313 53.0069ZM335.11 124.808L294.719 53.8359C294.508 53.8757 294.289 53.8966 294.066 53.8966C292.124 53.8966 290.55 52.3224 290.55 50.3806C290.55 48.4388 292.124 46.8647 294.066 46.8647C296.007 46.8647 297.582 48.4388 297.582 50.3806C297.582 51.3782 297.166 52.2788 296.499 52.9187L337.126 124.307L337.404 124.796L337.131 125.288L296.699 198.066C297.248 198.686 297.582 199.502 297.582 200.395C297.582 202.337 296.007 203.911 294.066 203.911C292.124 203.911 290.55 202.337 290.55 200.395C290.55 198.453 292.124 196.879 294.066 196.879C294.389 196.879 294.703 196.923 295.001 197.005L335.11 124.808ZM183.03 497.403L132.634 408.918L134.372 407.928L184.768 496.413L183.03 497.403ZM325.493 312.775L379.637 406.662L331.929 488.368C330.748 487.831 329.435 487.532 328.053 487.532C322.875 487.532 318.677 491.73 318.677 496.908C318.677 502.086 322.875 506.284 328.053 506.284C333.231 506.284 337.429 502.086 337.429 496.908C337.429 493.828 335.944 491.095 333.651 489.386L381.656 407.169L381.949 406.668L381.659 406.165L327.184 311.704C327.725 311.086 328.053 310.276 328.053 309.39C328.053 307.448 326.479 305.874 324.537 305.874C322.596 305.874 321.021 307.448 321.021 309.39C321.021 311.332 322.596 312.906 324.537 312.906C324.869 312.906 325.189 312.86 325.493 312.775ZM437.655 82.0225L391.643 1.06525L393.382 0.0770149L439.676 81.5302L439.957 82.0261L439.674 82.5211L391.641 166.434C392.184 167.053 392.513 167.864 392.513 168.751C392.513 170.693 390.938 172.267 388.997 172.267C387.055 172.267 385.481 170.693 385.481 168.751C385.481 166.81 387.055 165.235 388.997 165.235C389.326 165.235 389.646 165.281 389.948 165.366L437.655 82.0225ZM481.006 124.388H481.584H557.313L567.443 106.725L569.178 107.72L558.977 125.507L569.182 143.649L567.439 144.63L557.818 127.526L547.492 145.532C548.756 146.607 549.559 148.21 549.559 150C549.559 153.236 546.935 155.86 543.699 155.86C540.463 155.86 537.839 153.236 537.839 150C537.839 146.763 540.463 144.14 543.699 144.14C544.428 144.14 545.125 144.273 545.769 144.516L556.166 126.388H482.161L444.946 190.933L443.214 189.934L480.717 124.888L481.006 124.388ZM484.822 1.075L524.551 69.1813C522.636 70.8979 521.431 73.3904 521.431 76.1643C521.431 81.3425 525.629 85.5402 530.807 85.5402C535.985 85.5402 540.183 81.3425 540.183 76.1643C540.183 70.9862 535.985 66.7884 530.807 66.7884C529.125 66.7884 527.546 67.2315 526.181 68.0073L486.549 0.0672607L484.822 1.075ZM520.564 1.06926L552.208 56.1527L552.496 56.6546H553.075H567.725V54.6546H553.654L522.298 0.0730073L520.564 1.06926ZM453.468 192.949H454.042H512.273C512.964 190.483 515.229 188.675 517.915 188.675C521.152 188.675 523.775 191.299 523.775 194.535C523.775 197.771 521.152 200.395 517.915 200.395C514.818 200.395 512.282 197.992 512.07 194.949H454.616L422.92 249.286C423.677 249.931 424.156 250.891 424.156 251.963C424.156 253.904 422.582 255.479 420.64 255.479C418.699 255.479 417.124 253.904 417.124 251.963C417.124 250.021 418.699 248.447 420.64 248.447C420.789 248.447 420.935 248.456 421.078 248.474L453.178 193.445L453.468 192.949ZM465.176 221.491C464.578 221.491 464 221.401 463.457 221.235L415.353 304.112L452.732 367.495L464.68 346.623C464.255 346.041 464.004 345.325 464.004 344.55C464.004 342.608 465.578 341.034 467.52 341.034C469.462 341.034 471.036 342.608 471.036 344.55C471.036 346.491 469.462 348.066 467.52 348.066C467.086 348.066 466.67 347.987 466.286 347.843L453.902 369.478L468.182 393.691L481.197 371.189C479.996 370.116 479.24 368.555 479.24 366.817C479.24 363.581 481.863 360.957 485.1 360.957C488.336 360.957 490.96 363.581 490.96 366.817C490.96 370.054 488.336 372.677 485.1 372.677C484.32 372.677 483.576 372.525 482.895 372.248L470.006 394.531H568.311V396.531H468.849L448.751 431.278L485.677 495.322H559.558L567.467 482.893L569.154 483.967L560.951 496.859L560.656 497.322H560.107H485.1H484.522L484.233 496.822L446.73 431.776L446.441 431.276L446.73 430.776L467.032 395.679L452.758 371.475L418.863 430.689L462.702 506.83C463.454 506.48 464.292 506.284 465.176 506.284C468.412 506.284 471.036 508.908 471.036 512.144C471.036 515.38 468.412 518.004 465.176 518.004C461.939 518.004 459.316 515.38 459.316 512.144C459.316 510.514 459.981 509.04 461.055 507.978L416.844 431.19L416.557 430.692L416.842 430.194L451.589 369.492L413.333 304.624L413.036 304.12L413.33 303.614L461.671 220.327C460.241 219.259 459.316 217.553 459.316 215.631C459.316 212.395 461.939 209.771 465.176 209.771C468.412 209.771 471.036 212.395 471.036 215.631C471.036 218.867 468.412 221.491 465.176 221.491ZM560.107 191.019C559.403 191.019 558.728 190.895 558.103 190.668L518.482 259L556.433 325.973C557.847 325.118 559.506 324.626 561.279 324.626C566.457 324.626 570.655 328.824 570.655 334.002C570.655 339.18 566.457 343.378 561.279 343.378C556.101 343.378 551.903 339.18 551.903 334.002C551.903 331.323 553.027 328.906 554.828 327.197L516.459 259.487L516.177 258.989L516.464 258.493L556.369 189.672C555.072 188.597 554.247 186.975 554.247 185.159C554.247 181.923 556.871 179.299 560.107 179.299C563.343 179.299 565.967 181.923 565.967 185.159C565.967 188.396 563.343 191.019 560.107 191.019ZM568.311 231.281H543.699V229.281H568.311V231.281ZM482.756 258.995C482.756 259.798 482.486 260.538 482.033 261.13L543.103 366.403H567.725V368.403H542.527H541.951L541.662 367.905L480.407 262.312C480.041 262.441 479.649 262.51 479.24 262.51C477.298 262.51 475.724 260.936 475.724 258.995C475.724 257.053 477.298 255.479 479.24 255.479C481.182 255.479 482.756 257.053 482.756 258.995Z" fill="#F4D1EB"/>
</svg>
